<mxfile host="app.diagrams.net" agent="Mozilla/5.0 (X11; Linux x86_64) AppleWebKit/537.36 (KHTML, like Gecko) Chrome/132.0.0.0 Safari/537.36" version="26.0.10">
  <diagram name="Page-1" id="0783ab3e-0a74-02c8-0abd-f7b4e66b4bec">
    <mxGraphModel dx="954" dy="583" grid="1" gridSize="10" guides="1" tooltips="1" connect="1" arrows="1" fold="1" page="1" pageScale="1" pageWidth="850" pageHeight="1100" background="none" math="0" shadow="0">
      <root>
        <mxCell id="0" />
        <mxCell id="1" parent="0" />
        <mxCell id="1c1d494c118603dd-1" value="Pool" style="swimlane;html=1;childLayout=stackLayout;startSize=20;rounded=0;shadow=0;comic=0;labelBackgroundColor=none;strokeWidth=1;fontFamily=Verdana;fontSize=12;align=center;" parent="1" vertex="1">
          <mxGeometry x="40" y="20" width="800" height="640" as="geometry" />
        </mxCell>
        <mxCell id="1c1d494c118603dd-2" value="Task&amp;nbsp; tinyML" style="swimlane;html=1;startSize=20;" parent="1c1d494c118603dd-1" vertex="1">
          <mxGeometry y="20" width="230" height="620" as="geometry" />
        </mxCell>
        <mxCell id="1c1d494c118603dd-10" value="Task ADC Queue" style="rounded=0;whiteSpace=wrap;html=1;shadow=0;comic=0;labelBackgroundColor=none;strokeWidth=1;fontFamily=Verdana;fontSize=12;align=center;arcSize=50;" parent="1c1d494c118603dd-2" vertex="1">
          <mxGeometry x="190" y="260" width="80" height="34" as="geometry" />
        </mxCell>
        <mxCell id="FNvAEwD4z1GuorjDp7r2-37" style="edgeStyle=orthogonalEdgeStyle;rounded=0;html=1;labelBackgroundColor=none;startArrow=none;startFill=0;startSize=5;endArrow=classicThin;endFill=1;endSize=5;jettySize=auto;orthogonalLoop=1;strokeWidth=1;fontFamily=Verdana;fontSize=12" edge="1" parent="1c1d494c118603dd-2" source="FNvAEwD4z1GuorjDp7r2-38" target="FNvAEwD4z1GuorjDp7r2-39">
          <mxGeometry relative="1" as="geometry" />
        </mxCell>
        <mxCell id="FNvAEwD4z1GuorjDp7r2-38" value="" style="ellipse;whiteSpace=wrap;html=1;rounded=0;shadow=0;comic=0;labelBackgroundColor=none;strokeWidth=1;fillColor=#000000;fontFamily=Verdana;fontSize=12;align=center;" vertex="1" parent="1c1d494c118603dd-2">
          <mxGeometry x="77" y="40" width="40" height="40" as="geometry" />
        </mxCell>
        <mxCell id="FNvAEwD4z1GuorjDp7r2-55" value="" style="edgeStyle=orthogonalEdgeStyle;rounded=0;orthogonalLoop=1;jettySize=auto;html=1;" edge="1" parent="1c1d494c118603dd-2" source="FNvAEwD4z1GuorjDp7r2-39" target="FNvAEwD4z1GuorjDp7r2-54">
          <mxGeometry relative="1" as="geometry" />
        </mxCell>
        <mxCell id="FNvAEwD4z1GuorjDp7r2-39" value="Ativa Rede Neural" style="rounded=1;whiteSpace=wrap;html=1;shadow=0;comic=0;labelBackgroundColor=none;strokeWidth=1;fontFamily=Verdana;fontSize=12;align=center;arcSize=50;" vertex="1" parent="1c1d494c118603dd-2">
          <mxGeometry x="47" y="110" width="100" height="30" as="geometry" />
        </mxCell>
        <mxCell id="FNvAEwD4z1GuorjDp7r2-56" style="edgeStyle=orthogonalEdgeStyle;rounded=0;orthogonalLoop=1;jettySize=auto;html=1;exitX=1;exitY=0.5;exitDx=0;exitDy=0;" edge="1" parent="1c1d494c118603dd-2" source="FNvAEwD4z1GuorjDp7r2-54" target="1c1d494c118603dd-10">
          <mxGeometry relative="1" as="geometry">
            <Array as="points">
              <mxPoint x="210" y="235" />
            </Array>
          </mxGeometry>
        </mxCell>
        <mxCell id="FNvAEwD4z1GuorjDp7r2-54" value="Monitora ADC Queue" style="rounded=1;whiteSpace=wrap;html=1;shadow=0;comic=0;labelBackgroundColor=none;strokeWidth=1;fontFamily=Verdana;fontSize=12;align=center;arcSize=50;" vertex="1" parent="1c1d494c118603dd-2">
          <mxGeometry x="47" y="220" width="100" height="30" as="geometry" />
        </mxCell>
        <mxCell id="FNvAEwD4z1GuorjDp7r2-58" style="edgeStyle=orthogonalEdgeStyle;rounded=0;orthogonalLoop=1;jettySize=auto;html=1;" edge="1" parent="1c1d494c118603dd-2" target="FNvAEwD4z1GuorjDp7r2-59" source="1c1d494c118603dd-10">
          <mxGeometry relative="1" as="geometry">
            <mxPoint x="92" y="270" as="sourcePoint" />
            <Array as="points">
              <mxPoint x="210" y="340" />
            </Array>
          </mxGeometry>
        </mxCell>
        <mxCell id="FNvAEwD4z1GuorjDp7r2-60" style="edgeStyle=orthogonalEdgeStyle;rounded=0;orthogonalLoop=1;jettySize=auto;html=1;exitX=0;exitY=0.5;exitDx=0;exitDy=0;entryX=0;entryY=0.5;entryDx=0;entryDy=0;" edge="1" parent="1c1d494c118603dd-2" source="FNvAEwD4z1GuorjDp7r2-59" target="FNvAEwD4z1GuorjDp7r2-54">
          <mxGeometry relative="1" as="geometry" />
        </mxCell>
        <mxCell id="FNvAEwD4z1GuorjDp7r2-73" value="" style="edgeStyle=orthogonalEdgeStyle;rounded=0;orthogonalLoop=1;jettySize=auto;html=1;" edge="1" parent="1c1d494c118603dd-2" source="FNvAEwD4z1GuorjDp7r2-59" target="FNvAEwD4z1GuorjDp7r2-72">
          <mxGeometry relative="1" as="geometry" />
        </mxCell>
        <mxCell id="FNvAEwD4z1GuorjDp7r2-59" value="Analisa Amostra ADC" style="rounded=1;whiteSpace=wrap;html=1;shadow=0;comic=0;labelBackgroundColor=none;strokeWidth=1;fontFamily=Verdana;fontSize=12;align=center;arcSize=50;" vertex="1" parent="1c1d494c118603dd-2">
          <mxGeometry x="47" y="320" width="100" height="30" as="geometry" />
        </mxCell>
        <mxCell id="FNvAEwD4z1GuorjDp7r2-75" value="" style="edgeStyle=orthogonalEdgeStyle;rounded=0;orthogonalLoop=1;jettySize=auto;html=1;" edge="1" parent="1c1d494c118603dd-2" source="FNvAEwD4z1GuorjDp7r2-72" target="FNvAEwD4z1GuorjDp7r2-74">
          <mxGeometry relative="1" as="geometry" />
        </mxCell>
        <mxCell id="FNvAEwD4z1GuorjDp7r2-72" value="Classifica Amostra" style="rounded=1;whiteSpace=wrap;html=1;shadow=0;comic=0;labelBackgroundColor=none;strokeWidth=1;fontFamily=Verdana;fontSize=12;align=center;arcSize=50;" vertex="1" parent="1c1d494c118603dd-2">
          <mxGeometry x="47" y="430" width="100" height="30" as="geometry" />
        </mxCell>
        <mxCell id="FNvAEwD4z1GuorjDp7r2-76" style="edgeStyle=orthogonalEdgeStyle;rounded=0;orthogonalLoop=1;jettySize=auto;html=1;entryX=0;entryY=0.5;entryDx=0;entryDy=0;" edge="1" parent="1c1d494c118603dd-2" source="FNvAEwD4z1GuorjDp7r2-74" target="FNvAEwD4z1GuorjDp7r2-54">
          <mxGeometry relative="1" as="geometry">
            <Array as="points">
              <mxPoint x="30" y="525" />
              <mxPoint x="30" y="380" />
              <mxPoint x="27" y="380" />
              <mxPoint x="27" y="235" />
            </Array>
          </mxGeometry>
        </mxCell>
        <mxCell id="FNvAEwD4z1GuorjDp7r2-74" value="Envia Comput. Borda" style="rounded=1;whiteSpace=wrap;html=1;shadow=0;comic=0;labelBackgroundColor=none;strokeWidth=1;fontFamily=Verdana;fontSize=12;align=center;arcSize=50;" vertex="1" parent="1c1d494c118603dd-2">
          <mxGeometry x="47" y="510" width="100" height="30" as="geometry" />
        </mxCell>
        <mxCell id="1c1d494c118603dd-3" value="Task DMA Noise Capture" style="swimlane;html=1;startSize=20;" parent="1c1d494c118603dd-1" vertex="1">
          <mxGeometry x="230" y="20" width="190" height="620" as="geometry" />
        </mxCell>
        <mxCell id="FNvAEwD4z1GuorjDp7r2-32" style="edgeStyle=orthogonalEdgeStyle;rounded=0;html=1;labelBackgroundColor=none;startArrow=none;startFill=0;startSize=5;endArrow=classicThin;endFill=1;endSize=5;jettySize=auto;orthogonalLoop=1;strokeWidth=1;fontFamily=Verdana;fontSize=12" edge="1" parent="1c1d494c118603dd-3" source="FNvAEwD4z1GuorjDp7r2-33" target="FNvAEwD4z1GuorjDp7r2-34">
          <mxGeometry relative="1" as="geometry" />
        </mxCell>
        <mxCell id="FNvAEwD4z1GuorjDp7r2-33" value="" style="ellipse;whiteSpace=wrap;html=1;rounded=0;shadow=0;comic=0;labelBackgroundColor=none;strokeWidth=1;fillColor=#000000;fontFamily=Verdana;fontSize=12;align=center;" vertex="1" parent="1c1d494c118603dd-3">
          <mxGeometry x="70" y="40" width="40" height="40" as="geometry" />
        </mxCell>
        <mxCell id="FNvAEwD4z1GuorjDp7r2-51" style="edgeStyle=orthogonalEdgeStyle;rounded=0;orthogonalLoop=1;jettySize=auto;html=1;exitX=0.5;exitY=1;exitDx=0;exitDy=0;" edge="1" parent="1c1d494c118603dd-3" source="FNvAEwD4z1GuorjDp7r2-34" target="FNvAEwD4z1GuorjDp7r2-41">
          <mxGeometry relative="1" as="geometry" />
        </mxCell>
        <mxCell id="FNvAEwD4z1GuorjDp7r2-34" value="Ativa ADC com amostragem por DMA" style="rounded=1;whiteSpace=wrap;html=1;shadow=0;comic=0;labelBackgroundColor=none;strokeWidth=1;fontFamily=Verdana;fontSize=12;align=center;arcSize=50;" vertex="1" parent="1c1d494c118603dd-3">
          <mxGeometry x="40" y="110" width="100" height="50" as="geometry" />
        </mxCell>
        <mxCell id="FNvAEwD4z1GuorjDp7r2-41" value="Faz Amostragem ADC" style="rounded=1;whiteSpace=wrap;html=1;shadow=0;comic=0;labelBackgroundColor=none;strokeWidth=1;fontFamily=Verdana;fontSize=12;align=center;arcSize=50;" vertex="1" parent="1c1d494c118603dd-3">
          <mxGeometry x="45" y="210" width="100" height="30" as="geometry" />
        </mxCell>
        <mxCell id="1c1d494c118603dd-36" style="edgeStyle=none;rounded=0;html=1;labelBackgroundColor=none;startArrow=none;startFill=0;startSize=5;endArrow=classicThin;endFill=1;endSize=5;jettySize=auto;orthogonalLoop=1;strokeWidth=1;fontFamily=Verdana;fontSize=12" parent="1c1d494c118603dd-1" edge="1">
          <mxGeometry relative="1" as="geometry">
            <mxPoint x="157.5" y="385" as="sourcePoint" />
            <mxPoint x="157.5" y="385" as="targetPoint" />
          </mxGeometry>
        </mxCell>
        <mxCell id="1c1d494c118603dd-42" style="edgeStyle=none;rounded=0;html=1;labelBackgroundColor=none;startArrow=none;startFill=0;startSize=5;endArrow=classicThin;endFill=1;endSize=5;jettySize=auto;orthogonalLoop=1;strokeWidth=1;fontFamily=Verdana;fontSize=12" parent="1c1d494c118603dd-1" edge="1">
          <mxGeometry relative="1" as="geometry">
            <mxPoint x="392.5" y="630" as="sourcePoint" />
            <mxPoint x="392.5" y="630" as="targetPoint" />
          </mxGeometry>
        </mxCell>
        <mxCell id="1c1d494c118603dd-4" value="Task Drone Control" style="swimlane;html=1;startSize=20;" parent="1c1d494c118603dd-1" vertex="1">
          <mxGeometry x="420" y="20" width="190" height="620" as="geometry" />
        </mxCell>
        <mxCell id="1c1d494c118603dd-27" style="edgeStyle=orthogonalEdgeStyle;rounded=0;html=1;labelBackgroundColor=none;startArrow=none;startFill=0;startSize=5;endArrow=classicThin;endFill=1;endSize=5;jettySize=auto;orthogonalLoop=1;strokeWidth=1;fontFamily=Verdana;fontSize=12" parent="1c1d494c118603dd-4" source="60571a20871a0731-4" target="60571a20871a0731-8" edge="1">
          <mxGeometry relative="1" as="geometry" />
        </mxCell>
        <mxCell id="60571a20871a0731-4" value="" style="ellipse;whiteSpace=wrap;html=1;rounded=0;shadow=0;comic=0;labelBackgroundColor=none;strokeWidth=1;fillColor=#000000;fontFamily=Verdana;fontSize=12;align=center;" parent="1c1d494c118603dd-4" vertex="1">
          <mxGeometry x="80" y="40" width="40" height="40" as="geometry" />
        </mxCell>
        <mxCell id="FNvAEwD4z1GuorjDp7r2-66" value="" style="edgeStyle=orthogonalEdgeStyle;rounded=0;orthogonalLoop=1;jettySize=auto;html=1;" edge="1" parent="1c1d494c118603dd-4" source="60571a20871a0731-8" target="FNvAEwD4z1GuorjDp7r2-65">
          <mxGeometry relative="1" as="geometry" />
        </mxCell>
        <mxCell id="60571a20871a0731-8" value="Inicializa Hardware&amp;nbsp;&lt;br&gt;Drone" style="rounded=1;whiteSpace=wrap;html=1;shadow=0;comic=0;labelBackgroundColor=none;strokeWidth=1;fontFamily=Verdana;fontSize=12;align=center;arcSize=50;" parent="1c1d494c118603dd-4" vertex="1">
          <mxGeometry x="50" y="110" width="100" height="30" as="geometry" />
        </mxCell>
        <mxCell id="FNvAEwD4z1GuorjDp7r2-67" style="edgeStyle=orthogonalEdgeStyle;rounded=0;orthogonalLoop=1;jettySize=auto;html=1;exitX=0.583;exitY=0.917;exitDx=0;exitDy=0;exitPerimeter=0;" edge="1" parent="1c1d494c118603dd-4" source="FNvAEwD4z1GuorjDp7r2-65" target="FNvAEwD4z1GuorjDp7r2-65">
          <mxGeometry relative="1" as="geometry">
            <mxPoint x="130" y="300" as="targetPoint" />
            <Array as="points">
              <mxPoint x="110" y="330" />
              <mxPoint x="180" y="330" />
              <mxPoint x="180" y="235" />
            </Array>
          </mxGeometry>
        </mxCell>
        <mxCell id="FNvAEwD4z1GuorjDp7r2-65" value="Controle do Drone" style="whiteSpace=wrap;html=1;fontFamily=Verdana;rounded=1;shadow=0;comic=0;labelBackgroundColor=none;strokeWidth=1;arcSize=50;" vertex="1" parent="1c1d494c118603dd-4">
          <mxGeometry x="40" y="205" width="120" height="60" as="geometry" />
        </mxCell>
        <mxCell id="FNvAEwD4z1GuorjDp7r2-1" value="Main" style="swimlane;html=1;startSize=20;" vertex="1" parent="1c1d494c118603dd-1">
          <mxGeometry x="610" y="20" width="190" height="620" as="geometry" />
        </mxCell>
        <mxCell id="FNvAEwD4z1GuorjDp7r2-2" style="edgeStyle=orthogonalEdgeStyle;rounded=0;html=1;labelBackgroundColor=none;startArrow=none;startFill=0;startSize=5;endArrow=classicThin;endFill=1;endSize=5;jettySize=auto;orthogonalLoop=1;strokeWidth=1;fontFamily=Verdana;fontSize=12" edge="1" parent="FNvAEwD4z1GuorjDp7r2-1" source="FNvAEwD4z1GuorjDp7r2-3" target="FNvAEwD4z1GuorjDp7r2-4">
          <mxGeometry relative="1" as="geometry" />
        </mxCell>
        <mxCell id="FNvAEwD4z1GuorjDp7r2-3" value="" style="ellipse;whiteSpace=wrap;html=1;rounded=0;shadow=0;comic=0;labelBackgroundColor=none;strokeWidth=1;fillColor=#000000;fontFamily=Verdana;fontSize=12;align=center;" vertex="1" parent="FNvAEwD4z1GuorjDp7r2-1">
          <mxGeometry x="80" y="40" width="40" height="40" as="geometry" />
        </mxCell>
        <mxCell id="FNvAEwD4z1GuorjDp7r2-4" value="Inicialização STDIO" style="rounded=1;whiteSpace=wrap;html=1;shadow=0;comic=0;labelBackgroundColor=none;strokeWidth=1;fontFamily=Verdana;fontSize=12;align=center;arcSize=50;" vertex="1" parent="FNvAEwD4z1GuorjDp7r2-1">
          <mxGeometry x="50" y="91" width="100" height="30" as="geometry" />
        </mxCell>
        <mxCell id="FNvAEwD4z1GuorjDp7r2-5" style="rounded=0;html=1;labelBackgroundColor=none;startArrow=none;startFill=0;startSize=5;endArrow=classicThin;endFill=1;endSize=5;jettySize=auto;orthogonalLoop=1;strokeWidth=1;fontFamily=Verdana;fontSize=12;exitX=0.5;exitY=1;exitDx=0;exitDy=0;entryX=0.5;entryY=0;entryDx=0;entryDy=0;" edge="1" parent="FNvAEwD4z1GuorjDp7r2-1" source="FNvAEwD4z1GuorjDp7r2-4" target="FNvAEwD4z1GuorjDp7r2-6">
          <mxGeometry relative="1" as="geometry">
            <mxPoint x="56.94444444444434" y="268" as="targetPoint" />
          </mxGeometry>
        </mxCell>
        <mxCell id="FNvAEwD4z1GuorjDp7r2-6" value="Configuração Display e VU" style="rounded=1;whiteSpace=wrap;html=1;shadow=0;comic=0;labelBackgroundColor=none;strokeWidth=1;fontFamily=Verdana;fontSize=12;align=center;arcSize=50;" vertex="1" parent="FNvAEwD4z1GuorjDp7r2-1">
          <mxGeometry x="50" y="161" width="100" height="30" as="geometry" />
        </mxCell>
        <mxCell id="FNvAEwD4z1GuorjDp7r2-7" style="edgeStyle=none;rounded=0;html=1;labelBackgroundColor=none;startArrow=none;startFill=0;startSize=5;endArrow=classicThin;endFill=1;endSize=5;jettySize=auto;orthogonalLoop=1;strokeWidth=1;fontFamily=Verdana;fontSize=12;exitX=0.5;exitY=1;exitDx=0;exitDy=0;" edge="1" parent="FNvAEwD4z1GuorjDp7r2-1" source="FNvAEwD4z1GuorjDp7r2-6" target="FNvAEwD4z1GuorjDp7r2-8">
          <mxGeometry relative="1" as="geometry" />
        </mxCell>
        <mxCell id="FNvAEwD4z1GuorjDp7r2-8" value="Configuração&amp;nbsp; do Hardware" style="rounded=1;whiteSpace=wrap;html=1;shadow=0;comic=0;labelBackgroundColor=none;strokeWidth=1;fontFamily=Verdana;fontSize=12;align=center;arcSize=50;" vertex="1" parent="FNvAEwD4z1GuorjDp7r2-1">
          <mxGeometry x="50" y="231" width="100" height="30" as="geometry" />
        </mxCell>
        <mxCell id="FNvAEwD4z1GuorjDp7r2-31" value="Inicialização Task da Infra de Rede" style="rounded=1;whiteSpace=wrap;html=1;shadow=0;comic=0;labelBackgroundColor=none;strokeWidth=1;fontFamily=Verdana;fontSize=12;align=center;arcSize=50;" vertex="1" parent="FNvAEwD4z1GuorjDp7r2-1">
          <mxGeometry x="50" y="301" width="100" height="30" as="geometry" />
        </mxCell>
        <mxCell id="FNvAEwD4z1GuorjDp7r2-30" style="edgeStyle=none;rounded=0;html=1;labelBackgroundColor=none;startArrow=none;startFill=0;startSize=5;endArrow=classicThin;endFill=1;endSize=5;jettySize=auto;orthogonalLoop=1;strokeWidth=1;fontFamily=Verdana;fontSize=12;exitX=0.4;exitY=0.972;exitDx=0;exitDy=0;exitPerimeter=0;" edge="1" parent="FNvAEwD4z1GuorjDp7r2-1" target="FNvAEwD4z1GuorjDp7r2-31" source="FNvAEwD4z1GuorjDp7r2-8">
          <mxGeometry relative="1" as="geometry">
            <mxPoint x="110" y="238" as="sourcePoint" />
          </mxGeometry>
        </mxCell>
        <mxCell id="FNvAEwD4z1GuorjDp7r2-62" style="edgeStyle=none;rounded=0;html=1;labelBackgroundColor=none;startArrow=none;startFill=0;startSize=5;endArrow=classicThin;endFill=1;endSize=5;jettySize=auto;orthogonalLoop=1;strokeWidth=1;fontFamily=Verdana;fontSize=12;exitX=0.5;exitY=1;exitDx=0;exitDy=0;" edge="1" parent="FNvAEwD4z1GuorjDp7r2-1" target="FNvAEwD4z1GuorjDp7r2-61" source="FNvAEwD4z1GuorjDp7r2-31">
          <mxGeometry relative="1" as="geometry">
            <mxPoint x="107" y="250" as="sourcePoint" />
          </mxGeometry>
        </mxCell>
        <mxCell id="FNvAEwD4z1GuorjDp7r2-69" value="" style="edgeStyle=orthogonalEdgeStyle;rounded=0;orthogonalLoop=1;jettySize=auto;html=1;" edge="1" parent="FNvAEwD4z1GuorjDp7r2-1" source="FNvAEwD4z1GuorjDp7r2-61" target="FNvAEwD4z1GuorjDp7r2-68">
          <mxGeometry relative="1" as="geometry" />
        </mxCell>
        <mxCell id="FNvAEwD4z1GuorjDp7r2-61" value="Inic. Task&lt;br&gt;Controle do Drone" style="rounded=1;whiteSpace=wrap;html=1;shadow=0;comic=0;labelBackgroundColor=none;strokeWidth=1;fontFamily=Verdana;fontSize=12;align=center;arcSize=50;" vertex="1" parent="FNvAEwD4z1GuorjDp7r2-1">
          <mxGeometry x="50" y="370" width="100" height="30" as="geometry" />
        </mxCell>
        <mxCell id="FNvAEwD4z1GuorjDp7r2-71" value="" style="edgeStyle=orthogonalEdgeStyle;rounded=0;orthogonalLoop=1;jettySize=auto;html=1;" edge="1" parent="FNvAEwD4z1GuorjDp7r2-1" source="FNvAEwD4z1GuorjDp7r2-68" target="FNvAEwD4z1GuorjDp7r2-70">
          <mxGeometry relative="1" as="geometry" />
        </mxCell>
        <mxCell id="FNvAEwD4z1GuorjDp7r2-68" value="Inic. Task&lt;br&gt;Captura Ruido" style="rounded=1;whiteSpace=wrap;html=1;shadow=0;comic=0;labelBackgroundColor=none;strokeWidth=1;fontFamily=Verdana;fontSize=12;align=center;arcSize=50;" vertex="1" parent="FNvAEwD4z1GuorjDp7r2-1">
          <mxGeometry x="50" y="440" width="100" height="30" as="geometry" />
        </mxCell>
        <mxCell id="FNvAEwD4z1GuorjDp7r2-79" value="" style="edgeStyle=orthogonalEdgeStyle;rounded=0;orthogonalLoop=1;jettySize=auto;html=1;" edge="1" parent="FNvAEwD4z1GuorjDp7r2-1" source="FNvAEwD4z1GuorjDp7r2-70" target="FNvAEwD4z1GuorjDp7r2-78">
          <mxGeometry relative="1" as="geometry" />
        </mxCell>
        <mxCell id="FNvAEwD4z1GuorjDp7r2-70" value="Inic. Task TinyML" style="rounded=1;whiteSpace=wrap;html=1;shadow=0;comic=0;labelBackgroundColor=none;strokeWidth=1;fontFamily=Verdana;fontSize=12;align=center;arcSize=50;" vertex="1" parent="FNvAEwD4z1GuorjDp7r2-1">
          <mxGeometry x="50" y="510" width="100" height="30" as="geometry" />
        </mxCell>
        <mxCell id="FNvAEwD4z1GuorjDp7r2-78" value="Inicializa Escalonador de Task" style="rounded=1;whiteSpace=wrap;html=1;shadow=0;comic=0;labelBackgroundColor=none;strokeWidth=1;fontFamily=Verdana;fontSize=12;align=center;arcSize=50;" vertex="1" parent="FNvAEwD4z1GuorjDp7r2-1">
          <mxGeometry x="50" y="570" width="100" height="50" as="geometry" />
        </mxCell>
        <mxCell id="FNvAEwD4z1GuorjDp7r2-49" style="edgeStyle=orthogonalEdgeStyle;rounded=0;orthogonalLoop=1;jettySize=auto;html=1;" edge="1" parent="1c1d494c118603dd-1" source="FNvAEwD4z1GuorjDp7r2-41">
          <mxGeometry relative="1" as="geometry">
            <mxPoint x="250" y="280" as="targetPoint" />
          </mxGeometry>
        </mxCell>
        <mxCell id="FNvAEwD4z1GuorjDp7r2-77" style="edgeStyle=orthogonalEdgeStyle;rounded=0;orthogonalLoop=1;jettySize=auto;html=1;entryX=0.5;entryY=1;entryDx=0;entryDy=0;" edge="1" parent="1c1d494c118603dd-1" source="1c1d494c118603dd-10" target="FNvAEwD4z1GuorjDp7r2-41">
          <mxGeometry relative="1" as="geometry">
            <Array as="points">
              <mxPoint x="250" y="360" />
              <mxPoint x="325" y="360" />
            </Array>
          </mxGeometry>
        </mxCell>
      </root>
    </mxGraphModel>
  </diagram>
</mxfile>
